<?xml version="1.0" encoding="UTF-8"?>
<svg width="328px" height="328px" viewBox="0 0 328 328" version="1.1" xmlns="http://www.w3.org/2000/svg" xmlns:xlink="http://www.w3.org/1999/xlink">
    <!-- Generator: Sketch 48.1 (47250) - http://www.bohemiancoding.com/sketch -->
    <title>Mudrex</title>
    <desc>Created with Sketch.</desc>
    <defs></defs>
    <g id="Icon" stroke="none" stroke-width="1" fill="none" fill-rule="evenodd" transform="translate(-94.000000, -93.000000)">
        <g id="Mudrex" transform="translate(94.000000, 93.000000)" fill-rule="nonzero">
            <path d="M139.963131,70 C135.355122,71.2245153 130.83965,72.7743688 126.481517,74.6682428 C105.502215,83.7849796 85.9453722,103.002086 76.7739091,123.516535 C63.07874,154.149454 66.0788384,186.945684 81.1684828,212.961264 L118.10069,176.022091 C115.465077,165.740048 116.149072,154.440384 120.962351,143.674152 C124.726027,135.255689 131.98951,127.279037 140.271057,122.167448 C135.562414,105.64723 135.179575,87.7096486 139.963131,70 Z M206.768766,189.230078 C200.425145,199.729196 190.223152,207.635506 177.897756,211.083262 C174.435914,212.051623 172.764769,212.240358 166.441061,212.377107 C161.164574,212.491121 158.176916,212.357654 156.042006,211.913469 C154.647634,211.623284 153.29277,211.261978 151.957021,210.869015 L115.217266,247.6157 C124.657524,253.316442 135.296249,257.575404 146.931541,259.996831 C151.201335,260.885484 157.176727,261.150474 167.729641,260.922446 C180.377101,260.649076 183.719416,260.271504 190.643039,258.334747 C224.264112,248.930062 249.987564,222.943953 259,189.82595 C252.210178,191.714442 248.801331,192.092571 236.275704,192.363439 C225.722746,192.591466 219.747397,192.326503 215.477603,191.437824 C212.508179,190.819859 209.605031,190.080707 206.768766,189.230078 Z" id="path3857" fill="#6A067A"></path>
            <path d="M71.9631309,137 C67.3551904,138.223123 62.839393,139.771187 58.4815171,141.664974 C37.5022236,150.781871 17.9453722,169.999323 8.77390911,190.514123 C-4.92125998,221.147579 -1.92116163,253.944384 13.1684828,279.960422 L50.10069,243.0206 C47.4650853,232.738386 48.1490722,221.438523 52.962351,210.672094 C56.7260439,202.253474 63.989476,194.276682 72.271057,189.165013 C67.5626965,172.645473 67.1804665,154.708948 71.9631309,137 Z M76.2489392,200.443304 C76.2878391,200.535175 76.328624,200.626069 76.3677552,200.717811 C76.3285983,200.626086 76.2878134,200.535158 76.2489392,200.443304 Z M77.4237245,203.1047 C77.4843021,203.23679 77.5466276,203.367903 77.6078135,203.499719 C77.5466361,203.36798 77.4842849,203.236713 77.4237245,203.1047 Z M78.6989211,205.776132 C78.764554,205.908479 78.8301697,206.040783 78.8963938,206.17283 C78.8301611,206.04074 78.7645797,205.908522 78.6989211,205.776132 Z M80.0728584,208.44255 C80.1330933,208.555246 80.1928997,208.668207 80.2535972,208.780663 C80.1928483,208.668207 80.133119,208.555246 80.0728584,208.44255 Z M120.787146,248.889054 C120.960996,248.980634 121.138042,249.067911 121.31262,249.158547 C121.138025,249.067911 120.961013,248.980634 120.787146,248.889054 Z M123.504886,250.264946 C123.736846,250.378165 123.97123,250.488144 124.204407,250.599717 C123.971325,250.488204 123.736752,250.378114 123.504886,250.264946 Z M126.277857,251.563845 C126.54241,251.683037 126.808386,251.799932 127.074439,251.917025 C126.808292,251.799898 126.542505,251.68308 126.277857,251.563845 Z M129.030744,252.752268 C129.360193,252.888977 129.689806,253.025515 130.021449,253.15901 C129.689866,253.025549 129.360142,252.888943 129.030744,252.752268 Z M132.044697,253.945704 C132.302019,254.042905 132.557584,254.143363 132.816174,254.238628 C132.55761,254.14338 132.301993,254.042888 132.044697,253.945704 Z M135.272857,255.104003 C135.433606,255.158594 135.59193,255.217547 135.753142,255.271384 C135.59199,255.217565 135.433537,255.158551 135.272857,255.104003 Z M138.768766,256.228819 C132.425205,266.72867 122.223606,274.634467 109.897756,278.082386 C106.43594,279.050765 104.764761,279.239502 98.4410611,279.376254 C93.1645737,279.49027 90.1769164,279.3568 88.0420065,278.912607 C86.6476339,278.622418 85.2927696,278.261105 83.957021,277.868135 L47.2172656,314.615465 C56.6575235,320.316307 67.2962494,324.575336 78.9315408,326.996814 C83.201335,327.885482 89.1766923,328.150476 99.7296413,327.922445 C112.377067,327.64907 115.719424,327.271491 122.643039,325.3347 C156.264103,315.929842 181.987572,289.943362 191,256.824702 C184.210178,258.713235 180.801323,259.091491 168.275704,259.362235 C157.722746,259.590292 151.747397,259.325298 147.477603,258.436604 C144.508179,257.818628 141.605031,257.079463 138.768766,256.228819 Z" id="path4678" fill="#9705AE"></path>
            <path d="M231.323314,3.83717212e-05 C217.984292,0.0116729552 204.584975,2.6968236 192.390236,7.99513591 C171.443681,17.0958782 151.917356,36.2792702 142.760217,56.7577283 C129.086417,87.336904 132.081841,120.075595 147.147932,146.045534 L184.022491,109.171167 C181.391,98.9071636 182.073911,87.6273237 186.879685,76.8799799 C191.458259,66.6407595 201.220587,57.0473867 211.69386,52.4970155 C217.791234,49.8478551 224.491727,48.5061481 231.161234,48.5003051 C235.232922,48.4967463 239.291307,48.998599 243.196552,49.9974023 L279.970856,13.2232814 C274.216209,9.80753026 268.111213,6.98217433 261.741606,4.84889646 C252.035594,1.59819384 241.698104,-0.00905542402 231.323314,3.83717212e-05 Z M314.370847,47.4125657 L277.805401,83.9778287 C279.720078,91.031312 280.047978,99.7056468 278.59405,106.858683 C274.93404,124.865014 261.552406,139.185347 243.726219,144.170826 C240.269806,145.137506 238.601245,145.325901 232.287407,145.462402 C227.019156,145.576215 224.036162,145.443324 221.904584,144.999576 C220.51238,144.709901 219.159639,144.349229 217.825975,143.956955 L181.143567,180.639171 C190.569081,186.329911 201.191218,190.581402 212.808339,192.998581 C217.071469,193.885675 223.03749,194.150225 233.573976,193.922572 C246.201668,193.649681 249.538792,193.272772 256.451608,191.339412 C292.103991,181.368437 318.868953,152.729457 326.188948,116.716802 C329.413848,100.851003 328.268948,81.2288931 323.256565,66.4537677 C320.991052,59.7756794 317.989067,53.3978916 314.370847,47.4125657 Z" id="path4697" fill="#4C0457"></path>
        </g>
    </g>
</svg>